<svg data-v-fde0c5aa="" xmlns="http://www.w3.org/2000/svg" viewBox="0 0 300 300" class="iconLeft"><!----><defs data-v-fde0c5aa=""><!----></defs><rect data-v-fde0c5aa="" fill="transparent" x="0" y="0" width="300px" height="300px" class="logo-background-square"></rect><defs data-v-fde0c5aa=""><!----></defs><g data-v-fde0c5aa="" id="d4b0a767-efb9-44e8-bbd2-6a86d304fa27" fill="#000000" transform="matrix(3.2580467048087356,0,0,3.2580467048087356,118.11206747174968,120.69386870954155)"><path d="M4.62 2.31L0.07 12.60L1.40 12.60L2.65 9.66L6.59 9.66L7.84 12.60L9.17 12.60ZM4.62 5.01L6.12 8.54L3.12 8.54ZM16.73 9.38C16.73 8.36 16.42 7.55 15.81 6.94C15.20 6.33 14.44 6.02 13.54 6.02C12.57 6.02 11.83 6.44 11.34 7.27L11.34 6.16L10.22 6.16L10.22 15.68L11.34 15.68L11.34 11.49C11.83 12.32 12.57 12.74 13.54 12.74C14.44 12.74 15.20 12.43 15.81 11.82C16.42 11.21 16.73 10.40 16.73 9.38ZM15.60 9.38C15.60 10.10 15.39 10.66 14.97 11.07C14.55 11.48 14.02 11.69 13.40 11.69C12.87 11.69 12.39 11.48 11.97 11.06C11.55 10.64 11.34 10.08 11.34 9.38C11.34 8.68 11.55 8.12 11.97 7.70C12.39 7.28 12.87 7.07 13.40 7.07C14.02 7.07 14.55 7.28 14.97 7.69C15.39 8.10 15.60 8.66 15.60 9.38ZM24.71 9.38C24.71 8.36 24.40 7.55 23.79 6.94C23.18 6.33 22.42 6.02 21.52 6.02C20.55 6.02 19.81 6.44 19.32 7.27L19.32 6.16L18.20 6.16L18.20 15.68L19.32 15.68L19.32 11.49C19.81 12.32 20.55 12.74 21.52 12.74C22.42 12.74 23.18 12.43 23.79 11.82C24.40 11.21 24.71 10.40 24.71 9.38ZM23.58 9.38C23.58 10.10 23.37 10.66 22.95 11.07C22.53 11.48 22.00 11.69 21.38 11.69C20.85 11.69 20.37 11.48 19.95 11.06C19.53 10.64 19.32 10.08 19.32 9.38C19.32 8.68 19.53 8.12 19.95 7.70C20.37 7.28 20.85 7.07 21.38 7.07C22.00 7.07 22.53 7.28 22.95 7.69C23.37 8.10 23.58 8.66 23.58 9.38ZM26.54 10.35L25.62 10.88C25.71 11.40 26.01 11.84 26.50 12.20C27.00 12.56 27.54 12.74 28.14 12.74C28.87 12.74 29.44 12.58 29.86 12.26C30.28 11.93 30.49 11.44 30.49 10.78C30.49 10.01 29.90 9.37 28.71 8.88C28.40 8.75 28.15 8.64 27.96 8.55C27.78 8.46 27.60 8.34 27.42 8.18C27.24 8.03 27.15 7.87 27.15 7.71C27.15 7.29 27.47 7.08 28.13 7.08C28.41 7.08 28.68 7.15 28.95 7.28C29.21 7.41 29.41 7.60 29.54 7.85L30.44 7.28C30.31 6.93 30.03 6.63 29.57 6.38C29.11 6.14 28.63 6.02 28.11 6.02C27.56 6.02 27.08 6.18 26.66 6.49C26.24 6.80 26.03 7.21 26.03 7.71C26.03 7.97 26.08 8.19 26.18 8.40C26.28 8.61 26.43 8.78 26.63 8.93C26.84 9.08 27.02 9.20 27.20 9.29C27.38 9.38 27.60 9.48 27.87 9.59C28.12 9.68 28.30 9.76 28.43 9.82C28.55 9.88 28.70 9.97 28.86 10.07C29.02 10.18 29.14 10.30 29.22 10.43C29.29 10.56 29.33 10.71 29.33 10.88C29.33 11.42 28.96 11.69 28.21 11.69C27.81 11.69 27.45 11.56 27.14 11.31C26.83 11.06 26.63 10.74 26.54 10.35ZM36.09 10.08C36.09 10.55 35.94 10.93 35.64 11.23C35.33 11.54 34.94 11.69 34.45 11.69C33.54 11.69 33.08 11.15 33.08 10.08L33.08 6.16L31.96 6.16L31.96 10.22C31.96 11.03 32.16 11.65 32.56 12.09C32.95 12.52 33.49 12.74 34.17 12.74C34.98 12.74 35.62 12.40 36.09 11.73L36.09 12.60L37.21 12.60L37.21 6.16L36.09 6.16ZM39.61 10.35L38.68 10.88C38.78 11.40 39.07 11.84 39.56 12.20C40.06 12.56 40.60 12.74 41.20 12.74C41.93 12.74 42.50 12.58 42.92 12.26C43.34 11.93 43.55 11.44 43.55 10.78C43.55 10.01 42.96 9.37 41.78 8.88C41.46 8.75 41.21 8.64 41.03 8.55C40.84 8.46 40.66 8.34 40.48 8.18C40.30 8.03 40.21 7.87 40.21 7.71C40.21 7.29 40.53 7.08 41.19 7.08C41.47 7.08 41.74 7.15 42.01 7.28C42.27 7.41 42.47 7.60 42.60 7.85L43.50 7.28C43.38 6.93 43.09 6.63 42.63 6.38C42.17 6.14 41.69 6.02 41.17 6.02C40.62 6.02 40.14 6.18 39.72 6.49C39.30 6.80 39.09 7.21 39.09 7.71C39.09 7.97 39.14 8.19 39.24 8.40C39.34 8.61 39.50 8.78 39.70 8.93C39.90 9.08 40.09 9.20 40.26 9.29C40.44 9.38 40.67 9.48 40.94 9.59C41.18 9.68 41.36 9.76 41.49 9.82C41.62 9.88 41.76 9.97 41.92 10.07C42.09 10.18 42.21 10.30 42.28 10.43C42.35 10.56 42.39 10.71 42.39 10.88C42.39 11.42 42.02 11.69 41.27 11.69C40.87 11.69 40.51 11.56 40.20 11.31C39.89 11.06 39.69 10.74 39.61 10.35Z"></path></g><defs data-v-fde0c5aa=""><linearGradient data-v-fde0c5aa="" gradientTransform="rotate(25)" id="e9b7f713-3a8b-4ca5-b724-eadb529c6995" x1="0%" y1="0%" x2="100%" y2="0%"><stop data-v-fde0c5aa="" offset="0%" stop-color="#E90DCA" stop-opacity="1"></stop><stop data-v-fde0c5aa="" offset="100%" stop-color="#1536F1" stop-opacity="1"></stop></linearGradient></defs><g data-v-fde0c5aa="" id="12de4a18-8c0b-4c49-b5dc-d70e293a67e9" stroke="none" fill="url(#e9b7f713-3a8b-4ca5-b724-eadb529c6995)" transform="matrix(2.041879086447863,0,0,2.041879086447863,40,117.3299346168342)"><path d="M9.382 8.675h13.943v13.943L32 31.293V0H.707zM22.618 23.325H8.675V9.382L0 .707V32h31.293z"></path></g><!----></svg>