<svg data-v-fde0c5aa="" xmlns="http://www.w3.org/2000/svg" viewBox="0 0 300 300" class="iconAbove"><!----><defs data-v-fde0c5aa=""><!----></defs><rect data-v-fde0c5aa="" fill="transparent" x="0" y="0" width="300px" height="300px" class="logo-background-square"></rect><defs data-v-fde0c5aa=""><!----></defs><g data-v-fde0c5aa="" id="300b7bf0-16b0-4a08-8b72-2a09fc0d9ead" fill="#000000" transform="matrix(5.186514950333221,0,0,5.186514950333221,16.369439596594823,178.96808082759676)"><path d="M9.00 5.98L9.73 12.60L10.92 12.60L9.73 2.31L5.81 9.41L1.89 2.31L0.70 12.60L1.89 12.60L2.62 5.98L5.81 11.69ZM13.17 7.67C13.79 7.22 14.43 7.00 15.09 7.00C15.47 7.00 15.79 7.09 16.05 7.26C16.32 7.43 16.45 7.67 16.45 7.98L16.45 8.95C16.03 8.71 15.52 8.60 14.92 8.60C14.16 8.60 13.49 8.78 12.91 9.13C12.33 9.49 12.04 10.00 12.04 10.64C12.04 11.33 12.27 11.85 12.73 12.21C13.20 12.56 13.70 12.74 14.25 12.74C14.75 12.74 15.19 12.65 15.58 12.46C15.96 12.27 16.25 12.01 16.45 11.68L16.45 12.60L17.57 12.60L17.57 7.98C17.57 7.36 17.34 6.88 16.89 6.54C16.44 6.19 15.84 6.02 15.09 6.02C14.18 6.02 13.36 6.29 12.63 6.82ZM13.17 10.64C13.17 9.85 13.78 9.45 14.98 9.45C15.51 9.45 16.00 9.53 16.45 9.70L16.45 10.08C16.45 11.19 15.86 11.75 14.67 11.75C13.67 11.75 13.17 11.38 13.17 10.64ZM19.46 3.50C19.46 3.71 19.54 3.88 19.69 4.04C19.84 4.19 20.02 4.27 20.23 4.27C20.44 4.27 20.62 4.19 20.77 4.04C20.92 3.88 21 3.71 21 3.50C21 3.29 20.92 3.12 20.77 2.96C20.62 2.81 20.44 2.73 20.23 2.73C20.02 2.73 19.84 2.81 19.69 2.96C19.54 3.12 19.46 3.29 19.46 3.50ZM19.67 6.16L19.67 12.60L20.79 12.60L20.79 6.16ZM23.10 1.68L23.10 12.60L24.22 12.60L24.22 1.68ZM30.77 8.71L26.94 8.71C26.99 8.19 27.21 7.78 27.59 7.47C27.96 7.16 28.42 7.00 28.95 7.00C29.49 7.00 29.92 7.15 30.23 7.46C30.53 7.77 30.72 8.19 30.77 8.71ZM26.91 9.66L31.98 9.66C31.99 9.59 31.99 9.47 31.99 9.32C31.99 8.32 31.71 7.51 31.16 6.92C30.60 6.32 29.87 6.02 28.95 6.02C28.01 6.02 27.24 6.33 26.65 6.96C26.06 7.59 25.76 8.40 25.76 9.38C25.76 10.35 26.05 11.15 26.63 11.79C27.21 12.42 27.93 12.74 28.81 12.74C29.59 12.74 30.20 12.60 30.66 12.33C31.12 12.06 31.52 11.65 31.88 11.10L30.97 10.53C30.49 11.30 29.82 11.69 28.95 11.69C28.36 11.69 27.89 11.51 27.52 11.16C27.16 10.80 26.95 10.30 26.91 9.66ZM33.82 10.35L32.90 10.88C32.99 11.40 33.29 11.84 33.78 12.20C34.28 12.56 34.82 12.74 35.42 12.74C36.15 12.74 36.72 12.58 37.14 12.26C37.56 11.93 37.77 11.44 37.77 10.78C37.77 10.01 37.18 9.37 35.99 8.88C35.68 8.75 35.43 8.64 35.24 8.55C35.06 8.46 34.88 8.34 34.70 8.18C34.52 8.03 34.43 7.87 34.43 7.71C34.43 7.29 34.75 7.08 35.41 7.08C35.69 7.08 35.96 7.15 36.22 7.28C36.49 7.41 36.69 7.60 36.82 7.85L37.72 7.28C37.59 6.93 37.31 6.63 36.85 6.38C36.39 6.14 35.91 6.02 35.39 6.02C34.84 6.02 34.36 6.18 33.94 6.49C33.52 6.80 33.31 7.21 33.31 7.71C33.31 7.97 33.36 8.19 33.46 8.40C33.56 8.61 33.71 8.78 33.91 8.93C34.12 9.08 34.30 9.20 34.48 9.29C34.66 9.38 34.88 9.48 35.15 9.59C35.40 9.68 35.58 9.76 35.71 9.82C35.83 9.88 35.98 9.97 36.14 10.07C36.30 10.18 36.42 10.30 36.50 10.43C36.57 10.56 36.61 10.71 36.61 10.88C36.61 11.42 36.24 11.69 35.49 11.69C35.09 11.69 34.73 11.56 34.42 11.31C34.11 11.06 33.91 10.74 33.82 10.35ZM43.37 10.08C43.37 10.55 43.22 10.93 42.92 11.23C42.61 11.54 42.22 11.69 41.73 11.69C40.82 11.69 40.36 11.15 40.36 10.08L40.36 6.16L39.24 6.16L39.24 10.22C39.24 11.03 39.44 11.65 39.84 12.09C40.23 12.52 40.77 12.74 41.45 12.74C42.26 12.74 42.90 12.40 43.37 11.73L43.37 12.60L44.49 12.60L44.49 6.16L43.37 6.16ZM46.89 10.35L45.96 10.88C46.06 11.40 46.35 11.84 46.84 12.20C47.34 12.56 47.88 12.74 48.48 12.74C49.21 12.74 49.78 12.58 50.20 12.26C50.62 11.93 50.83 11.44 50.83 10.78C50.83 10.01 50.24 9.37 49.06 8.88C48.74 8.75 48.49 8.64 48.31 8.55C48.12 8.46 47.94 8.34 47.76 8.18C47.58 8.03 47.49 7.87 47.49 7.71C47.49 7.29 47.81 7.08 48.47 7.08C48.75 7.08 49.02 7.15 49.29 7.28C49.55 7.41 49.75 7.60 49.88 7.85L50.78 7.28C50.66 6.93 50.37 6.63 49.91 6.38C49.45 6.14 48.97 6.02 48.45 6.02C47.90 6.02 47.42 6.18 47.00 6.49C46.58 6.80 46.37 7.21 46.37 7.71C46.37 7.97 46.42 8.19 46.52 8.40C46.62 8.61 46.78 8.78 46.98 8.93C47.18 9.08 47.37 9.20 47.54 9.29C47.72 9.38 47.95 9.48 48.22 9.59C48.46 9.68 48.64 9.76 48.77 9.82C48.89 9.88 49.04 9.97 49.20 10.07C49.37 10.18 49.49 10.30 49.56 10.43C49.63 10.56 49.67 10.71 49.67 10.88C49.67 11.42 49.30 11.69 48.55 11.69C48.15 11.69 47.79 11.56 47.48 11.31C47.17 11.06 46.97 10.74 46.89 10.35Z"></path></g><defs data-v-fde0c5aa=""><linearGradient data-v-fde0c5aa="" gradientTransform="rotate(25)" id="601ba3aa-6eef-4ad7-aee3-6c4552929ea9" x1="0%" y1="0%" x2="100%" y2="0%"><stop data-v-fde0c5aa="" offset="0%" stop-color="#FFFFFF" stop-opacity="1"></stop><stop data-v-fde0c5aa="" offset="100%" stop-color="#E90D2D" stop-opacity="1"></stop></linearGradient></defs><g data-v-fde0c5aa="" id="3055de0e-6b75-4a01-9a91-0ab5806ab27e" stroke="none" fill="url(#601ba3aa-6eef-4ad7-aee3-6c4552929ea9)" transform="matrix(3.5851782862992256,0,0,3.5851782862992256,92.6371474192124,54.95572112881858)"><path d="M9.382 8.675h13.943v13.943L32 31.293V0H.707zM22.618 23.325H8.675V9.382L0 .707V32h31.293z"></path></g><!----></svg>