<svg data-v-fde0c5aa="" xmlns="http://www.w3.org/2000/svg" viewBox="0 0 300 300" class="iconLeft"><!----><defs data-v-fde0c5aa=""><!----></defs><rect data-v-fde0c5aa="" fill="transparent" x="0" y="0" width="300px" height="300px" class="logo-background-square"></rect><defs data-v-fde0c5aa=""><!----></defs><g data-v-fde0c5aa="" id="c8dc3aa4-2c90-49c4-b14f-98a4eddc168d" fill="#000000" transform="matrix(3.3173076618881625,0,0,3.3173076618881625,103.15769542265218,124.45673005437182)"><path d="M8.47 2.80L8.47 10.09L1.05 2.31L1.05 12.60L2.24 12.60L2.24 5.31L9.66 13.09L9.66 2.80ZM11.20 9.38C11.20 10.35 11.52 11.15 12.15 11.79C12.79 12.42 13.58 12.74 14.53 12.74C15.48 12.74 16.28 12.42 16.91 11.79C17.55 11.15 17.86 10.35 17.86 9.38C17.86 8.41 17.55 7.61 16.91 6.97C16.28 6.34 15.48 6.02 14.53 6.02C13.58 6.02 12.79 6.34 12.15 6.97C11.52 7.61 11.20 8.41 11.20 9.38ZM12.33 9.38C12.33 8.71 12.54 8.15 12.96 7.72C13.37 7.29 13.90 7.07 14.53 7.07C15.17 7.07 15.69 7.29 16.11 7.72C16.52 8.15 16.73 8.71 16.73 9.38C16.73 10.05 16.52 10.61 16.11 11.04C15.69 11.47 15.17 11.69 14.53 11.69C13.90 11.69 13.37 11.47 12.96 11.04C12.54 10.61 12.33 10.05 12.33 9.38ZM19.47 3.92L19.47 6.16L18.42 6.16L18.42 7.21L19.47 7.21L19.47 12.60L20.59 12.60L20.59 7.21L21.64 7.21L21.64 6.16L20.59 6.16L20.59 3.92ZM27.22 8.71L23.38 8.71C23.44 8.19 23.65 7.78 24.03 7.47C24.41 7.16 24.86 7.00 25.40 7.00C25.94 7.00 26.36 7.15 26.67 7.46C26.98 7.77 27.16 8.19 27.22 8.71ZM23.35 9.66L28.42 9.66C28.43 9.59 28.43 9.47 28.43 9.32C28.43 8.32 28.16 7.51 27.60 6.92C27.05 6.32 26.31 6.02 25.40 6.02C24.45 6.02 23.69 6.33 23.09 6.96C22.50 7.59 22.20 8.40 22.20 9.38C22.20 10.35 22.49 11.15 23.07 11.79C23.65 12.42 24.38 12.74 25.26 12.74C26.03 12.74 26.65 12.60 27.10 12.33C27.56 12.06 27.97 11.65 28.32 11.10L27.41 10.53C26.94 11.30 26.26 11.69 25.40 11.69C24.81 11.69 24.33 11.51 23.97 11.16C23.60 10.80 23.40 10.30 23.35 9.66ZM30.27 10.35L29.34 10.88C29.44 11.40 29.73 11.84 30.23 12.20C30.72 12.56 31.27 12.74 31.86 12.74C32.59 12.74 33.17 12.58 33.59 12.26C34.01 11.93 34.22 11.44 34.22 10.78C34.22 10.01 33.62 9.37 32.44 8.88C32.12 8.75 31.87 8.64 31.69 8.55C31.51 8.46 31.32 8.34 31.14 8.18C30.96 8.03 30.87 7.87 30.87 7.71C30.87 7.29 31.20 7.08 31.85 7.08C32.13 7.08 32.40 7.15 32.67 7.28C32.94 7.41 33.13 7.60 33.26 7.85L34.16 7.28C34.04 6.93 33.75 6.63 33.29 6.38C32.83 6.14 32.35 6.02 31.84 6.02C31.29 6.02 30.80 6.18 30.38 6.49C29.96 6.80 29.75 7.21 29.75 7.71C29.75 7.97 29.80 8.19 29.90 8.40C30.01 8.61 30.16 8.78 30.36 8.93C30.56 9.08 30.75 9.20 30.93 9.29C31.10 9.38 31.33 9.48 31.60 9.59C31.84 9.68 32.02 9.76 32.15 9.82C32.28 9.88 32.42 9.97 32.59 10.07C32.75 10.18 32.87 10.30 32.94 10.43C33.02 10.56 33.05 10.71 33.05 10.88C33.05 11.42 32.68 11.69 31.93 11.69C31.53 11.69 31.18 11.56 30.86 11.31C30.55 11.06 30.35 10.74 30.27 10.35ZM39.82 10.08C39.82 10.55 39.66 10.93 39.36 11.23C39.06 11.54 38.66 11.69 38.18 11.69C37.26 11.69 36.81 11.15 36.81 10.08L36.81 6.16L35.69 6.16L35.69 10.22C35.69 11.03 35.88 11.65 36.28 12.09C36.68 12.52 37.22 12.74 37.90 12.74C38.70 12.74 39.34 12.40 39.82 11.73L39.82 12.60L40.94 12.60L40.94 6.16L39.82 6.16ZM43.33 10.35L42.41 10.88C42.50 11.40 42.79 11.84 43.29 12.20C43.78 12.56 44.33 12.74 44.93 12.74C45.65 12.74 46.23 12.58 46.65 12.26C47.07 11.93 47.28 11.44 47.28 10.78C47.28 10.01 46.69 9.37 45.50 8.88C45.18 8.75 44.93 8.64 44.75 8.55C44.57 8.46 44.39 8.34 44.20 8.18C44.02 8.03 43.93 7.87 43.93 7.71C43.93 7.29 44.26 7.08 44.91 7.08C45.19 7.08 45.46 7.15 45.73 7.28C46.00 7.41 46.20 7.60 46.33 7.85L47.22 7.28C47.10 6.93 46.81 6.63 46.35 6.38C45.90 6.14 45.41 6.02 44.90 6.02C44.35 6.02 43.86 6.18 43.44 6.49C43.02 6.80 42.81 7.21 42.81 7.71C42.81 7.97 42.86 8.19 42.97 8.40C43.07 8.61 43.22 8.78 43.42 8.93C43.62 9.08 43.81 9.20 43.99 9.29C44.17 9.38 44.39 9.48 44.66 9.59C44.90 9.68 45.09 9.76 45.21 9.82C45.34 9.88 45.48 9.97 45.65 10.07C45.81 10.18 45.93 10.30 46.00 10.43C46.08 10.56 46.12 10.71 46.12 10.88C46.12 11.42 45.74 11.69 45.00 11.69C44.59 11.69 44.24 11.56 43.92 11.31C43.61 11.06 43.41 10.74 43.33 10.35Z"></path></g><defs data-v-fde0c5aa=""><linearGradient data-v-fde0c5aa="" gradientTransform="rotate(25)" id="4a0ce856-61d9-4bd4-83c1-c97d2b59815d" x1="0%" y1="0%" x2="100%" y2="0%"><stop data-v-fde0c5aa="" offset="0%" stop-color="#E9B80D" stop-opacity="1"></stop><stop data-v-fde0c5aa="" offset="100%" stop-color="#FFF5D3" stop-opacity="1"></stop></linearGradient></defs><g data-v-fde0c5aa="" id="18036ce2-fe4b-44a3-af79-a66c2dd31d7e" stroke="none" fill="url(#4a0ce856-61d9-4bd4-83c1-c97d2b59815d)" transform="matrix(1.6762771346704124,0,0,1.6762771346704124,40,123.1795658452734)"><path d="M9.382 8.675h13.943v13.943L32 31.293V0H.707zM22.618 23.325H8.675V9.382L0 .707V32h31.293z"></path></g><!----></svg>